<svg xmlns="http://www.w3.org/2000/svg" viewBox="0 0 160 160" role="img" aria-labelledby="title desc">
  <title id="title">Generic profile bust</title>
  <desc id="desc">A generic grayscale bust avatar.</desc>
  <defs>
    <radialGradient id="bg" cx="42%" cy="22%" r="74%">
      <stop offset="0" stop-color="#f7f2e9"/>
      <stop offset=".48" stop-color="#b8b1a9"/>
      <stop offset="1" stop-color="#4a4644"/>
    </radialGradient>
    <linearGradient id="stone" x1="0" x2="1" y1="0" y2="1">
      <stop offset="0" stop-color="#e8e1d7"/>
      <stop offset=".48" stop-color="#aca49c"/>
      <stop offset="1" stop-color="#5d5752"/>
    </linearGradient>
  </defs>
  <rect width="160" height="160" fill="url(#bg)"/>
  <path d="M53 37c8-14 31-22 51-10 18 11 25 30 19 51-4 15-18 29-35 34-21 6-43-3-52-20-9-17-2-39 17-55Z" fill="url(#stone)"/>
  <path d="M63 41c12-16 39-17 51-1 7 10 7 22 2 34-4-12-12-19-25-22-11-3-21-7-28-11Z" fill="#d7d0c7" opacity=".85"/>
  <path d="M64 68c7-8 18-8 27-4 9 4 18 10 29 8-2 14-10 25-24 30-15 5-31 1-39-10-6-8-4-17 7-24Z" fill="#8d8580"/>
  <path d="M78 80c8 2 18 1 29-3-2 9-6 17-13 21-9 5-21 2-26-5-4-6-1-11 10-13Z" fill="#c6bdb4"/>
  <path d="M57 100c11 14 31 19 50 11 10 13 17 25 21 42H34c3-18 11-36 23-53Z" fill="#8f8780"/>
  <path d="M58 108c14 12 32 14 51 5 6 8 11 18 15 30H41c4-13 9-25 17-35Z" fill="#c8bfb6"/>
  <path d="M44 122c20 13 49 15 83 3 6 8 10 18 12 28H23c4-12 11-23 21-31Z" fill="#5b5652"/>
  <circle cx="80" cy="80" r="76" fill="none" stroke="rgba(255,255,255,.24)" stroke-width="4"/>
</svg>
